PathFileType	4	(X/Y/Z)	DARI_DATA/Captury_Subj2_bilateral_squat03.trc
DataRate	CameraRate	NumFrames	NumMarkers	Units	OrigDataRate	OrigDataStartFrame	OrigNumFrames
60	60	4	47	mm	60.00239944458008	125	249
Frame#	Time		LeftUpLeg_		RightUpLeg_		LeftLeg_		RightLeg_		LeftFoot_		RightFoot_		LeftToeBase_		RightToeBase_		Knee_Lateral_r		Knee_Lateral_l		Ankle_Lateral_r		Ankle_Lateral_l		LeftArm_		LeftForeArm_		LeftHand_		LeftHandEE		RightArm_		RightForeArm_		RightHand_		RightHandEE		Spine_		Spine1_		Spine2_		Spine3_		Spine4_		Spine5_		Spine_x		Spine_y		Spine_z		RASI		LASI		RIPS		LIPS		RTHI		LTHI		RTIB		LTIB		RTOE		LTOE		RHEE		LHEE		RHipAngles		LHipAngles		RKneeAngles		LKneeAngles		RAnkleAngles		LAnkleAngles
			X1	Y1	Z1	X2	Y2	Z2	X3	Y3	Z3	X4	Y4	Z4	X5	Y5	Z5	X6	Y6	Z6	X7	Y7	Z7	X8	Y8	Z8	X9	Y9	Z9	X10	Y10	Z10	X11	Y11	Z11	X12	Y12	Z12	X13	Y13	Z13	X14	Y14	Z14	X15	Y15	Z15	X16	Y16	Z16	X17	Y17	Z17	X18	Y18	Z18	X19	Y19	Z19	X20	Y20	Z20	X21	Y21	Z21	X22	Y22	Z22	X23	Y23	Z23	X24	Y24	Z24	X25	Y25	Z25	X26	Y26	Z26	X27	Y27	Z27	X28	Y28	Z28	X29	Y29	Z29	X30	Y30	Z30	X31	Y31	Z31	X32	Y32	Z32	X33	Y33	Z33	X34	Y34	Z34	X35	Y35	Z35	X36	Y36	Z36	X37	Y37	Z37	X38	Y38	Z38	X39	Y39	Z39	X40	Y40	Z40	X41	Y41	Z41	X42	Y42	Z42	X43	Y43	Z43	X44	Y44	Z44	X45	Y45	Z45	X46	Y46	Z46	X47	Y47	Z47

125	2.06667	23.77533	583.58765	169.73587	192.42017	581.17926	163.46329	-99.18742	409.40982	-179.01920	299.15067	401.79822	-187.98923	-79.09314	77.33746	-1.07767	290.09729	78.96194	7.03333	-98.75310	22.17277	-115.80982	301.74265	23.66457	-108.72379	344.92615	403.82004	-177.90080	-144.37909	410.56207	-166.46358	331.79520	82.32398	35.37900	-119.39051	79.85230	29.30806	-41.00216	996.32330	-121.34851	-80.06035	1035.65515	-378.58954	-59.13225	1093.23340	-595.86194	-51.38049	1119.73462	-673.48254	231.60504	999.14532	-131.78780	258.68332	1031.09351	-391.57916	241.95384	1089.50220	-608.99371	235.95322	1122.20117	-684.37360	107.98995	669.86188	130.11449	106.18646	738.33069	67.56444	105.18198	799.60760	44.03138	103.66817	884.80023	33.54091	99.08114	993.68329	-33.72952	-0.00000	0.00000	-0.00000	155.39938	669.18488	128.35114	107.56466	709.19275	103.57916	109.83031	696.39197	169.40811	246.05658	580.56006	46.44095	-38.40000	584.62219	57.02103	147.27689	661.63977	168.20117	71.42180	662.72302	171.02252	306.48273	497.99057	15.63895	-96.90234	501.56842	26.58418	334.97650	251.69643	-104.82710	-125.44588	203.30998	-80.26543	310.83862	26.55944	-180.71588	-110.79468	18.23527	-187.31839	280.63940	17.52922	58.53461	-70.86595	15.74236	50.44095	-97.13323	14.46203	3.67418	-98.08086	12.29775	5.32169	-88.66755	-0.18668	-0.08924	-86.85506	-0.06583	-0.31535	-21.17897	-5.55848	-4.63030	-18.47392	-5.58466	-0.36011
126	2.08333	24.29190	576.64856	170.99399	192.91196	574.48468	164.00713	-100.21149	408.87421	-180.34421	300.14691	400.36725	-189.93025	-78.75158	77.48065	-1.29990	289.96631	78.79327	7.11197	-98.73155	22.43711	-116.03495	301.86093	23.56337	-108.65205	345.91437	402.34085	-179.79605	-145.35994	409.91669	-167.62462	331.62067	82.10263	35.52779	-118.96064	79.91142	29.20940	-41.40756	987.64081	-123.57619	-80.10056	1027.47827	-380.79462	-58.97656	1085.83374	-597.84058	-51.04455	1112.96948	-675.22333	231.15547	991.17731	-134.11334	257.66684	1023.33533	-393.93735	241.46761	1082.19556	-611.27026	236.23041	1116.11438	-686.16650	108.17195	662.67627	130.14581	106.02171	730.71252	66.99731	104.88751	791.90485	42.98772	103.31551	877.11877	31.94723	98.64288	985.73444	-35.92949	-0.00000	0.00000	-0.00000	155.57442	662.06799	128.18167	107.55762	701.73956	103.22174	110.13422	689.60046	169.16449	246.03851	572.79529	46.76297	-38.37628	576.44507	58.54785	147.63989	654.90619	168.14015	71.79594	655.87946	171.28278	307.20285	493.65594	15.05418	-97.04361	497.42908	26.82523	335.46274	250.71146	-105.75226	-125.65818	203.05977	-80.78585	311.05536	26.55927	-180.62750	-110.97935	18.59431	-187.51364	280.53360	17.32386	58.57411	-70.36165	15.83104	50.12723	-98.54208	14.72023	3.72416	-99.66371	12.33586	5.13831	-89.87819	-0.19686	-0.05393	-88.08627	-0.00310	-0.32676	-21.59204	-5.56003	-4.49333	-18.75735	-5.58578	-0.30635
127	2.10000	24.39749	569.17377	171.91212	193.02711	567.08893	165.13516	-101.42874	408.07556	-182.06950	300.90857	399.24078	-191.62314	-78.49577	77.64182	-1.44098	289.68289	78.75568	7.12881	-98.66369	22.35182	-116.02457	301.95782	23.48889	-108.57788	346.66180	401.10498	-181.40427	-146.54646	409.04868	-169.23587	331.29749	82.02677	35.60725	-118.63351	80.03948	29.16471	-41.58758	978.90985	-125.74710	-80.09473	1019.52448	-382.87183	-58.77187	1078.62781	-599.69592	-52.05594	1106.40198	-676.96722	230.85716	983.42609	-136.32155	256.67508	1015.85345	-396.18182	240.87448	1075.17908	-613.41748	236.49561	1109.76099	-688.06519	108.22318	654.61682	129.74646	106.06248	722.09625	65.84018	104.87029	783.22742	41.37043	103.17917	868.50848	30.02812	98.38071	977.18848	-37.95207	-0.00000	0.00000	-0.00000	155.62834	654.03070	127.84132	107.59299	693.23309	102.18546	110.11419	682.17883	168.32085	246.27835	563.54004	47.98914	-38.15260	567.05664	59.41995	147.66003	647.51538	167.90359	71.81178	648.45312	170.95181	307.60086	488.99832	14.94400	-97.51648	492.93811	26.62698	335.75079	249.96352	-106.58018	-125.99008	202.68123	-81.42716	311.28711	26.50426	-180.53519	-111.08038	18.39381	-187.46783	280.31857	17.29159	58.60977	-69.87521	16.10201	50.07942	-100.46581	14.74432	3.63077	-101.64684	12.60092	5.05661	-91.18718	-0.11830	-0.03692	-89.43744	-0.00730	-0.33291	-21.89860	-5.51743	-4.27749	-18.94701	-5.58642	-0.27845
128	2.11667	25.13165	562.28119	173.18088	193.74170	560.75348	165.79521	-102.16961	407.57224	-183.11591	301.32953	398.44165	-193.60371	-78.21640	77.74982	-1.50507	289.78040	79.15494	7.04951	-98.65927	22.26723	-115.94675	302.26059	23.58437	-108.48958	347.10086	400.31741	-183.46840	-147.24561	408.43555	-170.12868	331.43842	82.45274	35.46129	-118.27412	80.14804	29.20524	-42.08889	970.81732	-127.44311	-80.08235	1012.07776	-384.54144	-59.03137	1071.75110	-601.23590	-53.42818	1099.32886	-678.66608	230.36557	975.62415	-138.37814	255.66295	1008.37335	-398.24930	240.20441	1068.45300	-615.30225	236.74466	1103.21484	-689.91461	108.47620	647.56677	129.76114	105.90939	714.63898	65.24734	104.55250	775.73254	40.32746	102.80484	861.08325	28.53769	97.96997	969.66113	-39.86084	-0.00000	0.00000	-0.00000	155.87585	647.13727	127.68488	107.59756	685.87360	101.77831	110.40578	675.56012	168.02171	246.57135	556.11023	48.49668	-37.82657	558.68713	60.95421	148.08086	641.03510	167.84619	72.24141	641.72229	171.16818	308.21680	485.23489	14.21992	-97.41238	488.84070	26.98878	336.01135	249.60561	-107.72591	-126.12833	202.45934	-81.75684	311.54764	26.49831	-180.45651	-111.26289	18.22033	-187.35229	280.72223	17.80931	58.72619	-69.42876	16.29649	50.09029	-101.92939	14.81683	3.61616	-103.28206	12.69667	4.78601	-92.39069	-0.16351	-0.04021	-90.61861	0.09776	-0.33249	-22.10038	-5.43711	-3.95695	-19.04729	-5.58650	-0.24225
